<svg width="30" height="23" viewBox="0 0 30 23" fill="none" xmlns="http://www.w3.org/2000/svg">
<path d="M18.7534 9C18.7534 11.3296 17.6198 13.4742 16.4418 15.0666C15.857 15.8573 15.2713 16.498 14.8322 16.9406C14.6794 17.0947 14.5446 17.2245 14.4342 17.3278C14.3239 17.2245 14.1891 17.0947 14.0362 16.9406C13.5971 16.498 13.0115 15.8573 12.4266 15.0666C11.2486 13.4742 10.115 11.3296 10.115 9C10.115 6.67044 11.2486 4.52577 12.4266 2.93339C13.0115 2.14273 13.5971 1.502 14.0362 1.0594C14.1891 0.905279 14.3239 0.775524 14.4342 0.672181C14.5446 0.775524 14.6794 0.905279 14.8322 1.0594C15.2713 1.502 15.857 2.14273 16.4418 2.93339C17.6198 4.52577 18.7534 6.67044 18.7534 9Z" stroke="white"/>
<path d="M12.5571 8.77945C14.018 10.4467 14.5896 12.8775 14.7815 14.9616C14.8766 15.9945 14.8764 16.9202 14.8523 17.5874C14.843 17.8431 14.8303 18.0602 14.8182 18.23C14.6694 18.2438 14.4792 18.2584 14.2551 18.2689C13.6705 18.2964 12.8593 18.2967 11.9543 18.1882C10.1282 17.9692 7.9983 17.3167 6.53739 15.6495C5.07649 13.9822 4.50482 11.5515 4.31295 9.46735C4.21786 8.43447 4.21807 7.50877 4.24219 6.84152C4.25143 6.58577 4.26416 6.36869 4.27626 6.1989C4.42504 6.18509 4.61525 6.17057 4.83934 6.16002C5.424 6.13249 6.23512 6.13224 7.14015 6.24077C8.96629 6.45975 11.0962 7.11217 12.5571 8.77945Z" stroke="white"/>
<path d="M17.6492 8.77945C16.1883 10.4467 15.6167 12.8775 15.4248 14.9616C15.3297 15.9945 15.3299 16.9202 15.354 17.5874C15.3633 17.8431 15.376 18.0602 15.3881 18.23C15.5369 18.2438 15.7271 18.2584 15.9512 18.2689C16.5358 18.2964 17.347 18.2967 18.252 18.1882C20.0781 17.9692 22.208 17.3167 23.6689 15.6495C25.1298 13.9822 25.7015 11.5515 25.8934 9.46735C25.9884 8.43447 25.9882 7.50877 25.9641 6.84152C25.9549 6.58577 25.9421 6.36869 25.93 6.1989C25.7813 6.18509 25.5911 6.17057 25.367 6.16002C24.7823 6.13249 23.9712 6.13224 23.0662 6.24077C21.24 6.45975 19.1101 7.11217 17.6492 8.77945Z" stroke="white"/>
</svg>
